<svg width="242" height="132" viewBox="0 0 242 132" fill="none" xmlns="http://www.w3.org/2000/svg">
<path d="M49.0556 87.0387C51.4335 83.6856 62.026 85.0268 62.6745 87.7093C63.323 90.3917 59.8642 93.0742 56.8378 93.0742C53.8114 93.0742 46.6777 90.3918 49.0556 87.0387Z" fill="#333333"/>
<path d="M48.8263 88.7847C51.2977 85.2377 62.3065 86.6565 62.9805 89.4941C63.6545 92.3318 60.0598 95.1694 56.9144 95.1694C53.7691 95.1694 46.355 92.3318 48.8263 88.7847Z" fill="#333333"/>
<path d="M117.15 32.4952C112.6 14.1599 109.116 8.79063 101.802 5C91.736 8.39192 87.7559 12.4626 82.5624 22.2125C71.1337 19.3574 61.6852 21.2341 45.1645 24.0008C38.0653 12.8397 32.7332 9.67338 21.8178 7.23539C14.9356 15.9462 12.8783 21.0523 11.6577 37.8602C-2.34199 85.6372 10.675 121.273 45.1645 121.687C79.6539 122.101 95.3166 121.687 95.3166 121.687M119.96 22.2125C169.896 0.752766 218.968 13.0474 218.968 75.6382M126.229 97.0979C126.229 97.0979 98.7753 100.898 101.802 114.981C104.828 129.064 134.444 118.781 134.444 118.781H146.766M213.563 91.0624C206.306 101.757 200.217 105.27 180.705 100.898C171.402 97.2117 162.911 93.0742 162.911 93.0742C162.911 93.0742 151.306 86.5916 146.766 97.0979C142.226 107.604 156.277 114.981 156.277 114.981C194.499 133.869 210.737 128.834 232.154 97.0979C234.158 86.0567 232.886 79.7097 225.237 68.0379M74.564 78.3207C80.3489 83.7882 84.6629 84.3282 95.3166 78.3207M21.8178 78.3207C27.4754 83.8617 30.6444 84.2276 36.3014 78.3207M119.597 31.0859C114.868 11.6899 111.247 6.00992 103.646 2C93.1842 5.58815 89.0476 9.89436 83.65 20.2082C71.7721 17.188 61.9523 19.1732 44.7823 22.1C37.4041 10.2932 31.8625 6.94374 20.518 4.36471C13.3654 13.5795 11.2272 18.981 9.95861 36.7612C-4.59124 87.3022 8.93734 125 44.7823 125.438C80.6272 125.876 96.9055 125.438 96.9055 125.438M122.518 20.2082C174.416 -2.49294 225.416 10.5129 225.416 76.7247M129.033 99.4259C129.033 99.4259 100.5 103.446 103.646 118.344C106.791 133.241 137.571 122.364 137.571 122.364H150.377M219.799 93.0412C212.256 104.354 205.929 108.071 185.65 103.446C175.981 99.5462 167.156 95.1694 167.156 95.1694C167.156 95.1694 155.095 88.3118 150.377 99.4259C145.659 110.54 160.262 118.344 160.262 118.344C199.986 138.324 216.862 132.998 239.121 99.4259C241.204 87.7459 239.882 81.0318 231.931 68.6847M75.3373 79.5624C81.3495 85.3462 85.833 85.9175 96.9055 79.5624M20.518 79.5624C26.398 85.424 29.6916 85.811 35.5709 79.5624M12.8483 103.137C12.8483 103.137 -3.04208 115.875 7.76657 118.781C18.5752 121.687 28.8419 118.781 28.8419 118.781L19.9141 112.282L12.8483 103.137ZM49.0556 87.0387C51.4335 83.6856 62.026 85.0268 62.6745 87.7093C63.323 90.3917 59.8642 93.0742 56.8378 93.0742C53.8114 93.0742 46.6777 90.3918 49.0556 87.0387ZM11.196 105.814C11.196 105.814 -5.31884 119.289 5.9146 122.364C17.148 125.438 27.8182 122.364 27.8182 122.364L18.5396 115.488L11.196 105.814ZM48.8263 88.7847C51.2977 85.2377 62.3065 86.6565 62.9805 89.4941C63.6545 92.3318 60.0598 95.1694 56.9144 95.1694C53.7691 95.1694 46.355 92.3318 48.8263 88.7847Z" stroke="#333333" stroke-width="3" stroke-linecap="round" stroke-linejoin="round"/>
</svg>
