<svg width="242" height="191" viewBox="0 0 242 191" fill="none" xmlns="http://www.w3.org/2000/svg">
<path d="M49.0556 87.0387C51.4335 83.6856 62.026 85.0268 62.6745 87.7093C63.323 90.3917 59.8642 93.0742 56.8378 93.0742C53.8114 93.0742 46.6777 90.3917 49.0556 87.0387Z" fill="white"/>
<path d="M117.15 32.4952C112.6 14.1599 109.116 8.79063 101.802 5C91.736 8.39192 87.7559 12.4626 82.5624 22.2125C71.1337 19.3574 61.6852 21.2341 45.1645 24.0008C38.0653 12.8397 32.7332 9.67338 21.8178 7.23539C14.9356 15.9462 12.8783 21.0523 11.6577 37.8602C-2.34199 85.6372 10.675 121.273 45.1645 121.687C79.6539 122.101 95.3166 121.687 95.3166 121.687M119.96 22.2125C169.896 0.752766 218.968 13.0474 218.968 75.6382M126.229 97.0979C126.229 97.0979 98.7753 100.898 101.802 114.981C104.828 129.064 134.444 118.781 134.444 118.781H146.766M213.563 91.0624C206.306 101.757 200.217 105.27 180.705 100.898C171.402 97.2117 162.911 93.0742 162.911 93.0742C162.911 93.0742 151.306 86.5916 146.766 97.0979C142.226 107.604 156.277 114.981 156.277 114.981C194.499 133.869 210.737 128.834 232.154 97.0979C234.158 86.0567 232.886 79.7097 225.237 68.0379M74.564 78.3207C80.3489 83.7882 84.6629 84.3282 95.3166 78.3207M21.8178 78.3207C27.4754 83.8617 30.6444 84.2276 36.3014 78.3207M12.8483 103.137C12.8483 103.137 -3.04208 115.875 7.76657 118.781C18.5752 121.687 28.8419 118.781 28.8419 118.781L19.9141 112.282L12.8483 103.137ZM49.0556 87.0387C51.4335 83.6856 62.026 85.0268 62.6745 87.7093C63.323 90.3917 59.8642 93.0742 56.8378 93.0742C53.8114 93.0742 46.6777 90.3917 49.0556 87.0387Z" stroke="white" stroke-width="3" stroke-linecap="round" stroke-linejoin="round"/>
<path d="M48.8263 88.7847C51.2977 85.2377 62.3065 86.6565 62.9805 89.4941C63.6545 92.3318 60.0598 95.1694 56.9144 95.1694C53.7691 95.1694 46.355 92.3318 48.8263 88.7847Z" fill="white"/>
<path d="M119.597 31.0859C114.868 11.6899 111.247 6.00992 103.646 2C93.1842 5.58815 89.0476 9.89436 83.65 20.2082C71.7721 17.188 61.9523 19.1732 44.7823 22.1C37.4041 10.2932 31.8625 6.94374 20.518 4.36471C13.3654 13.5795 11.2272 18.981 9.95861 36.7612C-4.59124 87.3022 8.93734 125 44.7823 125.438C80.6272 125.876 96.9055 125.438 96.9055 125.438M122.518 20.2082C174.416 -2.49294 225.416 10.5129 225.416 76.7247M129.033 99.4259C129.033 99.4259 100.5 103.446 103.646 118.344C106.791 133.241 137.571 122.364 137.571 122.364H150.377M219.799 93.0412C212.256 104.354 205.929 108.071 185.65 103.446C175.981 99.5462 167.156 95.1694 167.156 95.1694C167.156 95.1694 155.095 88.3118 150.377 99.4259C145.659 110.54 160.262 118.344 160.262 118.344C199.986 138.324 216.862 132.998 239.121 99.4259C241.204 87.7459 239.882 81.0318 231.931 68.6847M75.3373 79.5624C81.3495 85.3462 85.833 85.9175 96.9055 79.5624M20.518 79.5624C26.398 85.424 29.6916 85.811 35.5709 79.5624M11.196 105.814C11.196 105.814 -5.31885 119.289 5.9146 122.364C17.148 125.438 27.8182 122.364 27.8182 122.364L18.5396 115.488L11.196 105.814ZM48.8263 88.7847C51.2977 85.2377 62.3065 86.6565 62.9805 89.4941C63.6545 92.3318 60.0598 95.1694 56.9144 95.1694C53.7691 95.1694 46.355 92.3318 48.8263 88.7847Z" stroke="white" stroke-width="3" stroke-linecap="round" stroke-linejoin="round"/>
<path d="M7.836 186V182.248L8.158 183.116L3.944 176.2H5.442L8.984 182.038H8.172L11.728 176.2H13.114L8.914 183.116L9.222 182.248V186H7.836ZM17.3825 186.084C16.6358 186.084 15.9731 185.921 15.3945 185.594C14.8158 185.267 14.3585 184.819 14.0225 184.25C13.6865 183.671 13.5185 183.018 13.5185 182.29C13.5185 181.553 13.6865 180.899 14.0225 180.33C14.3585 179.761 14.8158 179.317 15.3945 179C15.9731 178.673 16.6358 178.51 17.3825 178.51C18.1198 178.51 18.7778 178.673 19.3565 179C19.9445 179.317 20.4018 179.761 20.7285 180.33C21.0645 180.89 21.2325 181.543 21.2325 182.29C21.2325 183.027 21.0645 183.681 20.7285 184.25C20.4018 184.819 19.9445 185.267 19.3565 185.594C18.7778 185.921 18.1198 186.084 17.3825 186.084ZM17.3825 184.908C17.8585 184.908 18.2831 184.801 18.6565 184.586C19.0391 184.371 19.3378 184.068 19.5525 183.676C19.7671 183.275 19.8745 182.813 19.8745 182.29C19.8745 181.758 19.7671 181.301 19.5525 180.918C19.3378 180.526 19.0391 180.223 18.6565 180.008C18.2831 179.793 17.8585 179.686 17.3825 179.686C16.9065 179.686 16.4818 179.793 16.1085 180.008C15.7351 180.223 15.4365 180.526 15.2125 180.918C14.9885 181.301 14.8765 181.758 14.8765 182.29C14.8765 182.813 14.9885 183.275 15.2125 183.676C15.4365 184.068 15.7351 184.371 16.1085 184.586C16.4818 184.801 16.9065 184.908 17.3825 184.908ZM26.9132 186.084C26.2785 186.084 25.7185 185.967 25.2332 185.734C24.7572 185.501 24.3839 185.146 24.1132 184.67C23.8519 184.185 23.7212 183.578 23.7212 182.85V178.58H25.0652V182.696C25.0652 183.424 25.2379 183.97 25.5832 184.334C25.9379 184.698 26.4325 184.88 27.0672 184.88C27.5339 184.88 27.9399 184.787 28.2852 184.6C28.6305 184.404 28.8965 184.124 29.0832 183.76C29.2699 183.387 29.3632 182.939 29.3632 182.416V178.58H30.7072V186H29.4332V183.998L29.6432 184.53C29.4005 185.025 29.0365 185.407 28.5512 185.678C28.0659 185.949 27.5199 186.084 26.9132 186.084ZM41.4916 186.084C40.7729 186.084 40.1289 185.925 39.5596 185.608C38.9996 185.291 38.5562 184.847 38.2296 184.278C37.9029 183.709 37.7396 183.046 37.7396 182.29C37.7396 181.534 37.9029 180.876 38.2296 180.316C38.5562 179.747 38.9996 179.303 39.5596 178.986C40.1289 178.669 40.7729 178.51 41.4916 178.51C42.1169 178.51 42.6816 178.65 43.1856 178.93C43.6896 179.21 44.0909 179.63 44.3896 180.19C44.6976 180.75 44.8516 181.45 44.8516 182.29C44.8516 183.13 44.7022 183.83 44.4036 184.39C44.1142 184.95 43.7176 185.375 43.2136 185.664C42.7096 185.944 42.1356 186.084 41.4916 186.084ZM41.6036 184.908C42.0702 184.908 42.4902 184.801 42.8636 184.586C43.2462 184.371 43.5449 184.068 43.7596 183.676C43.9836 183.275 44.0956 182.813 44.0956 182.29C44.0956 181.758 43.9836 181.301 43.7596 180.918C43.5449 180.526 43.2462 180.223 42.8636 180.008C42.4902 179.793 42.0702 179.686 41.6036 179.686C41.1276 179.686 40.7029 179.793 40.3296 180.008C39.9562 180.223 39.6576 180.526 39.4336 180.918C39.2096 181.301 39.0976 181.758 39.0976 182.29C39.0976 182.813 39.2096 183.275 39.4336 183.676C39.6576 184.068 39.9562 184.371 40.3296 184.586C40.7029 184.801 41.1276 184.908 41.6036 184.908ZM44.1376 186V183.998L44.2216 182.276L44.0816 180.554V175.612H45.4256V186H44.1376ZM51.8465 186.084C51.0999 186.084 50.4372 185.921 49.8585 185.594C49.2799 185.267 48.8225 184.819 48.4865 184.25C48.1505 183.671 47.9825 183.018 47.9825 182.29C47.9825 181.553 48.1505 180.899 48.4865 180.33C48.8225 179.761 49.2799 179.317 49.8585 179C50.4372 178.673 51.0999 178.51 51.8465 178.51C52.5839 178.51 53.2419 178.673 53.8205 179C54.4085 179.317 54.8659 179.761 55.1925 180.33C55.5285 180.89 55.6965 181.543 55.6965 182.29C55.6965 183.027 55.5285 183.681 55.1925 184.25C54.8659 184.819 54.4085 185.267 53.8205 185.594C53.2419 185.921 52.5839 186.084 51.8465 186.084ZM51.8465 184.908C52.3225 184.908 52.7472 184.801 53.1205 184.586C53.5032 184.371 53.8019 184.068 54.0165 183.676C54.2312 183.275 54.3385 182.813 54.3385 182.29C54.3385 181.758 54.2312 181.301 54.0165 180.918C53.8019 180.526 53.5032 180.223 53.1205 180.008C52.7472 179.793 52.3225 179.686 51.8465 179.686C51.3705 179.686 50.9459 179.793 50.5725 180.008C50.1992 180.223 49.9005 180.526 49.6765 180.918C49.4525 181.301 49.3405 181.758 49.3405 182.29C49.3405 182.813 49.4525 183.275 49.6765 183.676C49.9005 184.068 50.1992 184.371 50.5725 184.586C50.9459 184.801 51.3705 184.908 51.8465 184.908ZM62.2173 178.51C62.8239 178.51 63.3559 178.627 63.8133 178.86C64.2799 179.093 64.6439 179.448 64.9053 179.924C65.1666 180.4 65.2973 181.002 65.2973 181.73V186H63.9533V181.884C63.9533 181.165 63.7759 180.624 63.4213 180.26C63.0759 179.896 62.5859 179.714 61.9513 179.714C61.4753 179.714 61.0599 179.807 60.7053 179.994C60.3506 180.181 60.0753 180.456 59.8793 180.82C59.6926 181.184 59.5993 181.637 59.5993 182.178V186H58.2553V178.58H59.5433V180.582L59.3333 180.05C59.5759 179.565 59.9493 179.187 60.4533 178.916C60.9573 178.645 61.5453 178.51 62.2173 178.51ZM68.1765 179.98L68.0925 176.2H69.2685L69.1705 179.98H68.1765ZM74.672 186.084C73.9253 186.084 73.3467 185.883 72.936 185.482C72.5253 185.081 72.32 184.507 72.32 183.76V176.956H73.664V183.704C73.664 184.105 73.762 184.413 73.958 184.628C74.1633 184.843 74.4527 184.95 74.826 184.95C75.246 184.95 75.596 184.833 75.876 184.6L76.296 185.566C76.0907 185.743 75.8433 185.874 75.554 185.958C75.274 186.042 74.98 186.084 74.672 186.084ZM71.06 179.686V178.58H75.792V179.686H71.06ZM87.0426 178.51C87.6493 178.51 88.1813 178.627 88.6386 178.86C89.1053 179.093 89.4693 179.448 89.7306 179.924C89.992 180.4 90.1226 181.002 90.1226 181.73V186H88.7786V181.884C88.7786 181.165 88.6013 180.624 88.2466 180.26C87.9013 179.896 87.4113 179.714 86.7766 179.714C86.3006 179.714 85.8853 179.807 85.5306 179.994C85.176 180.181 84.9006 180.456 84.7046 180.82C84.518 181.184 84.4246 181.637 84.4246 182.178V186H83.0806V175.612H84.4246V180.582L84.1586 180.05C84.4013 179.565 84.7746 179.187 85.2786 178.916C85.7826 178.645 86.3706 178.51 87.0426 178.51ZM97.9159 186V184.432L97.8459 184.138V181.464C97.8459 180.895 97.6779 180.456 97.3419 180.148C97.0153 179.831 96.5206 179.672 95.8579 179.672C95.4193 179.672 94.9899 179.747 94.5699 179.896C94.1499 180.036 93.7953 180.227 93.5059 180.47L92.9459 179.462C93.3286 179.154 93.7859 178.921 94.3179 178.762C94.8593 178.594 95.4239 178.51 96.0119 178.51C97.0293 178.51 97.8133 178.757 98.3639 179.252C98.9146 179.747 99.1899 180.503 99.1899 181.52V186H97.9159ZM95.4799 186.084C94.9293 186.084 94.4439 185.991 94.0239 185.804C93.6133 185.617 93.2959 185.361 93.0719 185.034C92.8479 184.698 92.7359 184.32 92.7359 183.9C92.7359 183.499 92.8293 183.135 93.0159 182.808C93.2119 182.481 93.5246 182.22 93.9539 182.024C94.3926 181.828 94.9806 181.73 95.7179 181.73H98.0699V182.696H95.7739C95.1019 182.696 94.6493 182.808 94.4159 183.032C94.1826 183.256 94.0659 183.527 94.0659 183.844C94.0659 184.208 94.2106 184.502 94.4999 184.726C94.7893 184.941 95.1906 185.048 95.7039 185.048C96.2079 185.048 96.6466 184.936 97.0199 184.712C97.4026 184.488 97.6779 184.161 97.8459 183.732L98.1119 184.656C97.9346 185.095 97.6219 185.445 97.1739 185.706C96.7259 185.958 96.1613 186.084 95.4799 186.084ZM104.186 186L100.938 178.58H102.338L105.222 185.3H104.55L107.49 178.58H108.806L105.558 186H104.186ZM113.86 186.084C113.066 186.084 112.366 185.921 111.76 185.594C111.162 185.267 110.696 184.819 110.36 184.25C110.033 183.681 109.87 183.027 109.87 182.29C109.87 181.553 110.028 180.899 110.346 180.33C110.672 179.761 111.116 179.317 111.676 179C112.245 178.673 112.884 178.51 113.594 178.51C114.312 178.51 114.947 178.669 115.498 178.986C116.048 179.303 116.478 179.751 116.786 180.33C117.103 180.899 117.262 181.567 117.262 182.332C117.262 182.388 117.257 182.453 117.248 182.528C117.248 182.603 117.243 182.673 117.234 182.738H110.92V181.772H116.534L115.988 182.108C115.997 181.632 115.899 181.207 115.694 180.834C115.488 180.461 115.204 180.171 114.84 179.966C114.485 179.751 114.07 179.644 113.594 179.644C113.127 179.644 112.712 179.751 112.348 179.966C111.984 180.171 111.699 180.465 111.494 180.848C111.288 181.221 111.186 181.651 111.186 182.136V182.36C111.186 182.855 111.298 183.298 111.522 183.69C111.755 184.073 112.077 184.371 112.488 184.586C112.898 184.801 113.37 184.908 113.902 184.908C114.34 184.908 114.737 184.833 115.092 184.684C115.456 184.535 115.773 184.311 116.044 184.012L116.786 184.88C116.45 185.272 116.03 185.571 115.526 185.776C115.031 185.981 114.476 186.084 113.86 186.084ZM126.836 186.084C126.089 186.084 125.51 185.883 125.1 185.482C124.689 185.081 124.484 184.507 124.484 183.76V176.956H125.828V183.704C125.828 184.105 125.926 184.413 126.122 184.628C126.327 184.843 126.616 184.95 126.99 184.95C127.41 184.95 127.76 184.833 128.04 184.6L128.46 185.566C128.254 185.743 128.007 185.874 127.718 185.958C127.438 186.042 127.144 186.084 126.836 186.084ZM123.224 179.686V178.58H127.956V179.686H123.224ZM135.391 186V184.432L135.321 184.138V181.464C135.321 180.895 135.153 180.456 134.817 180.148C134.49 179.831 133.995 179.672 133.333 179.672C132.894 179.672 132.465 179.747 132.045 179.896C131.625 180.036 131.27 180.227 130.981 180.47L130.421 179.462C130.803 179.154 131.261 178.921 131.793 178.762C132.334 178.594 132.899 178.51 133.487 178.51C134.504 178.51 135.288 178.757 135.839 179.252C136.389 179.747 136.665 180.503 136.665 181.52V186H135.391ZM132.955 186.084C132.404 186.084 131.919 185.991 131.499 185.804C131.088 185.617 130.771 185.361 130.547 185.034C130.323 184.698 130.211 184.32 130.211 183.9C130.211 183.499 130.304 183.135 130.491 182.808C130.687 182.481 130.999 182.22 131.429 182.024C131.867 181.828 132.455 181.73 133.193 181.73H135.545V182.696H133.249C132.577 182.696 132.124 182.808 131.891 183.032C131.657 183.256 131.541 183.527 131.541 183.844C131.541 184.208 131.685 184.502 131.975 184.726C132.264 184.941 132.665 185.048 133.179 185.048C133.683 185.048 134.121 184.936 134.495 184.712C134.877 184.488 135.153 184.161 135.321 183.732L135.587 184.656C135.409 185.095 135.097 185.445 134.649 185.706C134.201 185.958 133.636 186.084 132.955 186.084ZM141.98 186.084C141.364 186.084 140.776 186 140.216 185.832C139.665 185.664 139.231 185.459 138.914 185.216L139.474 184.152C139.791 184.367 140.183 184.549 140.65 184.698C141.116 184.847 141.592 184.922 142.078 184.922C142.703 184.922 143.151 184.833 143.422 184.656C143.702 184.479 143.842 184.231 143.842 183.914C143.842 183.681 143.758 183.499 143.59 183.368C143.422 183.237 143.198 183.139 142.918 183.074C142.647 183.009 142.344 182.953 142.008 182.906C141.672 182.85 141.336 182.785 141 182.71C140.664 182.626 140.356 182.514 140.076 182.374C139.796 182.225 139.572 182.024 139.404 181.772C139.236 181.511 139.152 181.165 139.152 180.736C139.152 180.288 139.278 179.896 139.53 179.56C139.782 179.224 140.136 178.967 140.594 178.79C141.06 178.603 141.611 178.51 142.246 178.51C142.731 178.51 143.221 178.571 143.716 178.692C144.22 178.804 144.63 178.967 144.948 179.182L144.374 180.246C144.038 180.022 143.688 179.868 143.324 179.784C142.96 179.7 142.596 179.658 142.232 179.658C141.644 179.658 141.205 179.756 140.916 179.952C140.626 180.139 140.482 180.381 140.482 180.68C140.482 180.932 140.566 181.128 140.734 181.268C140.911 181.399 141.135 181.501 141.406 181.576C141.686 181.651 141.994 181.716 142.33 181.772C142.666 181.819 143.002 181.884 143.338 181.968C143.674 182.043 143.977 182.15 144.248 182.29C144.528 182.43 144.752 182.626 144.92 182.878C145.097 183.13 145.186 183.466 145.186 183.886C145.186 184.334 145.055 184.721 144.794 185.048C144.532 185.375 144.164 185.631 143.688 185.818C143.212 185.995 142.642 186.084 141.98 186.084ZM148.657 184.208L148.685 182.486L152.955 178.58H154.579L151.303 181.8L150.575 182.416L148.657 184.208ZM147.565 186V175.612H148.909V186H147.565ZM153.235 186L150.323 182.388L151.191 181.31L154.887 186H153.235ZM158.788 186.084C158.172 186.084 157.584 186 157.024 185.832C156.473 185.664 156.039 185.459 155.722 185.216L156.282 184.152C156.599 184.367 156.991 184.549 157.458 184.698C157.925 184.847 158.401 184.922 158.886 184.922C159.511 184.922 159.959 184.833 160.23 184.656C160.51 184.479 160.65 184.231 160.65 183.914C160.65 183.681 160.566 183.499 160.398 183.368C160.23 183.237 160.006 183.139 159.726 183.074C159.455 183.009 159.152 182.953 158.816 182.906C158.48 182.85 158.144 182.785 157.808 182.71C157.472 182.626 157.164 182.514 156.884 182.374C156.604 182.225 156.38 182.024 156.212 181.772C156.044 181.511 155.96 181.165 155.96 180.736C155.96 180.288 156.086 179.896 156.338 179.56C156.59 179.224 156.945 178.967 157.402 178.79C157.869 178.603 158.419 178.51 159.054 178.51C159.539 178.51 160.029 178.571 160.524 178.692C161.028 178.804 161.439 178.967 161.756 179.182L161.182 180.246C160.846 180.022 160.496 179.868 160.132 179.784C159.768 179.7 159.404 179.658 159.04 179.658C158.452 179.658 158.013 179.756 157.724 179.952C157.435 180.139 157.29 180.381 157.29 180.68C157.29 180.932 157.374 181.128 157.542 181.268C157.719 181.399 157.943 181.501 158.214 181.576C158.494 181.651 158.802 181.716 159.138 181.772C159.474 181.819 159.81 181.884 160.146 181.968C160.482 182.043 160.785 182.15 161.056 182.29C161.336 182.43 161.56 182.626 161.728 182.878C161.905 183.13 161.994 183.466 161.994 183.886C161.994 184.334 161.863 184.721 161.602 185.048C161.341 185.375 160.972 185.631 160.496 185.818C160.02 185.995 159.451 186.084 158.788 186.084ZM171.381 186.084C170.635 186.084 170.056 185.883 169.645 185.482C169.235 185.081 169.029 184.507 169.029 183.76V176.956H170.373V183.704C170.373 184.105 170.471 184.413 170.667 184.628C170.873 184.843 171.162 184.95 171.535 184.95C171.955 184.95 172.305 184.833 172.585 184.6L173.005 185.566C172.8 185.743 172.553 185.874 172.263 185.958C171.983 186.042 171.689 186.084 171.381 186.084ZM167.769 179.686V178.58H172.501V179.686H167.769ZM178.262 186.084C177.515 186.084 176.853 185.921 176.274 185.594C175.695 185.267 175.238 184.819 174.902 184.25C174.566 183.671 174.398 183.018 174.398 182.29C174.398 181.553 174.566 180.899 174.902 180.33C175.238 179.761 175.695 179.317 176.274 179C176.853 178.673 177.515 178.51 178.262 178.51C178.999 178.51 179.657 178.673 180.236 179C180.824 179.317 181.281 179.761 181.608 180.33C181.944 180.89 182.112 181.543 182.112 182.29C182.112 183.027 181.944 183.681 181.608 184.25C181.281 184.819 180.824 185.267 180.236 185.594C179.657 185.921 178.999 186.084 178.262 186.084ZM178.262 184.908C178.738 184.908 179.163 184.801 179.536 184.586C179.919 184.371 180.217 184.068 180.432 183.676C180.647 183.275 180.754 182.813 180.754 182.29C180.754 181.758 180.647 181.301 180.432 180.918C180.217 180.526 179.919 180.223 179.536 180.008C179.163 179.793 178.738 179.686 178.262 179.686C177.786 179.686 177.361 179.793 176.988 180.008C176.615 180.223 176.316 180.526 176.092 180.918C175.868 181.301 175.756 181.758 175.756 182.29C175.756 182.813 175.868 183.275 176.092 183.676C176.316 184.068 176.615 184.371 176.988 184.586C177.361 184.801 177.786 184.908 178.262 184.908ZM192.197 186.084C191.478 186.084 190.834 185.925 190.265 185.608C189.705 185.291 189.261 184.847 188.935 184.278C188.608 183.709 188.445 183.046 188.445 182.29C188.445 181.534 188.608 180.876 188.935 180.316C189.261 179.747 189.705 179.303 190.265 178.986C190.834 178.669 191.478 178.51 192.197 178.51C192.822 178.51 193.387 178.65 193.891 178.93C194.395 179.21 194.796 179.63 195.095 180.19C195.403 180.75 195.557 181.45 195.557 182.29C195.557 183.13 195.407 183.83 195.109 184.39C194.819 184.95 194.423 185.375 193.919 185.664C193.415 185.944 192.841 186.084 192.197 186.084ZM192.309 184.908C192.775 184.908 193.195 184.801 193.569 184.586C193.951 184.371 194.25 184.068 194.465 183.676C194.689 183.275 194.801 182.813 194.801 182.29C194.801 181.758 194.689 181.301 194.465 180.918C194.25 180.526 193.951 180.223 193.569 180.008C193.195 179.793 192.775 179.686 192.309 179.686C191.833 179.686 191.408 179.793 191.035 180.008C190.661 180.223 190.363 180.526 190.139 180.918C189.915 181.301 189.803 181.758 189.803 182.29C189.803 182.813 189.915 183.275 190.139 183.676C190.363 184.068 190.661 184.371 191.035 184.586C191.408 184.801 191.833 184.908 192.309 184.908ZM194.843 186V183.998L194.927 182.276L194.787 180.554V175.612H196.131V186H194.843ZM202.552 186.084C201.805 186.084 201.142 185.921 200.564 185.594C199.985 185.267 199.528 184.819 199.192 184.25C198.856 183.671 198.688 183.018 198.688 182.29C198.688 181.553 198.856 180.899 199.192 180.33C199.528 179.761 199.985 179.317 200.564 179C201.142 178.673 201.805 178.51 202.552 178.51C203.289 178.51 203.947 178.673 204.526 179C205.114 179.317 205.571 179.761 205.898 180.33C206.234 180.89 206.402 181.543 206.402 182.29C206.402 183.027 206.234 183.681 205.898 184.25C205.571 184.819 205.114 185.267 204.526 185.594C203.947 185.921 203.289 186.084 202.552 186.084ZM202.552 184.908C203.028 184.908 203.452 184.801 203.826 184.586C204.208 184.371 204.507 184.068 204.722 183.676C204.936 183.275 205.044 182.813 205.044 182.29C205.044 181.758 204.936 181.301 204.722 180.918C204.507 180.526 204.208 180.223 203.826 180.008C203.452 179.793 203.028 179.686 202.552 179.686C202.076 179.686 201.651 179.793 201.278 180.008C200.904 180.223 200.606 180.526 200.382 180.918C200.158 181.301 200.046 181.758 200.046 182.29C200.046 182.813 200.158 183.275 200.382 183.676C200.606 184.068 200.904 184.371 201.278 184.586C201.651 184.801 202.076 184.908 202.552 184.908ZM213.742 188.8C213.387 188.8 213.042 188.739 212.706 188.618C212.37 188.506 212.081 188.338 211.838 188.114L212.412 187.106C212.599 187.283 212.804 187.419 213.028 187.512C213.252 187.605 213.49 187.652 213.742 187.652C214.069 187.652 214.339 187.568 214.554 187.4C214.769 187.232 214.969 186.933 215.156 186.504L215.618 185.482L215.758 185.314L218.67 178.58H219.986L216.388 186.742C216.173 187.265 215.931 187.675 215.66 187.974C215.399 188.273 215.109 188.483 214.792 188.604C214.475 188.735 214.125 188.8 213.742 188.8ZM215.506 186.238L212.118 178.58H213.518L216.402 185.188L215.506 186.238ZM225.039 186.084C224.246 186.084 223.546 185.921 222.939 185.594C222.342 185.267 221.875 184.819 221.539 184.25C221.213 183.681 221.049 183.027 221.049 182.29C221.049 181.553 221.208 180.899 221.525 180.33C221.852 179.761 222.295 179.317 222.855 179C223.425 178.673 224.064 178.51 224.773 178.51C225.492 178.51 226.127 178.669 226.677 178.986C227.228 179.303 227.657 179.751 227.965 180.33C228.283 180.899 228.441 181.567 228.441 182.332C228.441 182.388 228.437 182.453 228.427 182.528C228.427 182.603 228.423 182.673 228.413 182.738H222.099V181.772H227.713L227.167 182.108C227.177 181.632 227.079 181.207 226.873 180.834C226.668 180.461 226.383 180.171 226.019 179.966C225.665 179.751 225.249 179.644 224.773 179.644C224.307 179.644 223.891 179.751 223.527 179.966C223.163 180.171 222.879 180.465 222.673 180.848C222.468 181.221 222.365 181.651 222.365 182.136V182.36C222.365 182.855 222.477 183.298 222.701 183.69C222.935 184.073 223.257 184.371 223.667 184.586C224.078 184.801 224.549 184.908 225.081 184.908C225.52 184.908 225.917 184.833 226.271 184.684C226.635 184.535 226.953 184.311 227.223 184.012L227.965 184.88C227.629 185.272 227.209 185.571 226.705 185.776C226.211 185.981 225.655 186.084 225.039 186.084ZM233.556 186.084C232.809 186.084 232.23 185.883 231.82 185.482C231.409 185.081 231.204 184.507 231.204 183.76V176.956H232.548V183.704C232.548 184.105 232.646 184.413 232.842 184.628C233.047 184.843 233.336 184.95 233.71 184.95C234.13 184.95 234.48 184.833 234.76 184.6L235.18 185.566C234.974 185.743 234.727 185.874 234.438 185.958C234.158 186.042 233.864 186.084 233.556 186.084ZM229.944 179.686V178.58H234.676V179.686H229.944Z" fill="white"/>
</svg>
