<svg width="16" height="16" viewBox="0 0 16 16" fill="none" xmlns="http://www.w3.org/2000/svg">
<circle cx="8" cy="8" r="8" fill="#F9F9F9"/>
<path d="M5.90873 5.04825C5.89348 5.03296 5.87537 5.02082 5.85543 5.01254C5.83549 5.00426 5.81411 5 5.79251 5C5.77092 5 5.74954 5.00426 5.7296 5.01254C5.70966 5.02082 5.69155 5.03296 5.6763 5.04825L4.80568 5.91382L4.49533 5.6114C4.48008 5.5961 4.46197 5.58397 4.44203 5.57569C4.42209 5.56741 4.40071 5.56315 4.37911 5.56315C4.35752 5.56315 4.33614 5.56741 4.3162 5.57569C4.29626 5.58397 4.27815 5.5961 4.2629 5.6114L4.04825 5.82632C4.03296 5.84156 4.02082 5.85968 4.01254 5.87962C4.00426 5.89956 4 5.92094 4 5.94253C4 5.96413 4.00426 5.98551 4.01254 6.00545C4.02082 6.02539 4.03296 6.0435 4.04825 6.05874L4.6989 6.70679C4.73138 6.73766 4.77447 6.75488 4.81928 6.75488C4.86409 6.75488 4.90718 6.73766 4.93966 6.70679L5.15281 6.49324L6.13992 5.50626C6.17067 5.47548 6.18805 5.43382 6.18828 5.3903C6.18851 5.34679 6.17158 5.30494 6.14115 5.27384L5.90873 5.04825ZM5.90873 7.22468C5.89348 7.20939 5.87537 7.19725 5.85543 7.18897C5.83549 7.18069 5.81411 7.17643 5.79251 7.17643C5.77092 7.17643 5.74954 7.18069 5.7296 7.18897C5.70966 7.19725 5.69155 7.20939 5.6763 7.22468L4.80568 8.09586L4.49533 7.79371C4.48008 7.77841 4.46197 7.76628 4.44203 7.758C4.42209 7.74971 4.40071 7.74545 4.37911 7.74545C4.35752 7.74545 4.33614 7.74971 4.3162 7.758C4.29626 7.76628 4.27815 7.77841 4.2629 7.79371L4.04825 8.00822C4.03296 8.02346 4.02082 8.04157 4.01254 8.06151C4.00426 8.08146 4 8.10284 4 8.12443C4 8.14602 4.00426 8.1674 4.01254 8.18735C4.02082 8.20729 4.03296 8.2254 4.04825 8.24064L4.69726 8.89006C4.72971 8.92092 4.77279 8.93813 4.81757 8.93813C4.86236 8.93813 4.90543 8.92092 4.93788 8.89006L5.15253 8.67554L6.13964 7.68816C6.17028 7.65759 6.1876 7.61616 6.18783 7.57289C6.18806 7.52961 6.17118 7.48799 6.14087 7.4571L5.90873 7.22468ZM4.87499 9.59416C4.51283 9.59416 4.21068 9.8881 4.21068 10.2504C4.21068 10.6127 4.5131 10.9067 4.87499 10.9067C5.04904 10.9067 5.21596 10.8375 5.33903 10.7144C5.4621 10.5914 5.53124 10.4245 5.53124 10.2504C5.53124 10.0764 5.4621 9.90944 5.33903 9.78637C5.21596 9.6633 5.04904 9.59416 4.87499 9.59416ZM10.7812 9.81291H6.84375C6.78573 9.81291 6.73009 9.83595 6.68907 9.87698C6.64804 9.918 6.625 9.97364 6.625 10.0317V10.4692C6.625 10.5272 6.64804 10.5828 6.68907 10.6238C6.73009 10.6649 6.78573 10.6879 6.84375 10.6879H10.7812C10.8393 10.6879 10.8949 10.6649 10.9359 10.6238C10.977 10.5828 11 10.5272 11 10.4692V10.0317C11 9.97364 10.977 9.918 10.9359 9.87698C10.8949 9.83595 10.8393 9.81291 10.7812 9.81291ZM10.7812 5.4379H6.84375C6.78573 5.4379 6.73009 5.46095 6.68907 5.50197C6.64804 5.543 6.625 5.59864 6.625 5.65665V6.09415C6.625 6.15217 6.64804 6.20781 6.68907 6.24883C6.73009 6.28986 6.78573 6.3129 6.84375 6.3129H10.7812C10.8393 6.3129 10.8949 6.28986 10.9359 6.24883C10.977 6.20781 11 6.15217 11 6.09415V5.65665C11 5.59864 10.977 5.543 10.9359 5.50197C10.8949 5.46095 10.8393 5.4379 10.7812 5.4379V5.4379ZM10.7812 7.62541H6.84375C6.78573 7.62541 6.73009 7.64845 6.68907 7.68948C6.64804 7.7305 6.625 7.78614 6.625 7.84416V8.28166C6.625 8.33967 6.64804 8.39531 6.68907 8.43634C6.73009 8.47736 6.78573 8.50041 6.84375 8.50041H10.7812C10.8393 8.50041 10.8949 8.47736 10.9359 8.43634C10.977 8.39531 11 8.33967 11 8.28166V7.84416C11 7.78614 10.977 7.7305 10.9359 7.68948C10.8949 7.64845 10.8393 7.62541 10.7812 7.62541Z" fill="#262626"/>
</svg>
