<svg width="10" height="12" viewBox="0 0 10 12" fill="none" xmlns="http://www.w3.org/2000/svg">
<path d="M10 3.375C10 2.33906 9.06771 1.5 7.91667 1.5C6.76563 1.5 5.83333 2.33906 5.83333 3.375C5.83333 4.22812 6.46615 4.94766 7.33073 5.175C7.3151 5.55234 7.22135 5.84297 7.04427 6.03984C6.64323 6.48984 5.76042 6.56484 4.82552 6.64219C4.09115 6.70312 3.33073 6.76875 2.70833 7.03828V3.66328C3.55469 3.42422 4.16667 2.71406 4.16667 1.875C4.16667 0.839062 3.23438 0 2.08333 0C0.932292 0 0 0.839062 0 1.875C0 2.71406 0.611979 3.42422 1.45833 3.66328V8.33437C0.611979 8.57578 0 9.28594 0 10.125C0 11.1609 0.932292 12 2.08333 12C3.23438 12 4.16667 11.1609 4.16667 10.125C4.16667 9.32812 3.61458 8.64609 2.83333 8.37656C2.91406 8.25469 3.03646 8.14687 3.22135 8.0625C3.64323 7.87031 4.27344 7.81875 4.94271 7.7625C6.04167 7.67109 7.28646 7.56562 8.02083 6.74531C8.38542 6.3375 8.57031 5.8125 8.58333 5.15391C9.40625 4.90078 10 4.2 10 3.375ZM2.08333 1.5C2.3125 1.5 2.5 1.66875 2.5 1.875C2.5 2.08125 2.3125 2.25 2.08333 2.25C1.85417 2.25 1.66667 2.08125 1.66667 1.875C1.66667 1.66875 1.85417 1.5 2.08333 1.5ZM2.08333 10.5C1.85417 10.5 1.66667 10.3312 1.66667 10.125C1.66667 9.91875 1.85417 9.75 2.08333 9.75C2.3125 9.75 2.5 9.91875 2.5 10.125C2.5 10.3312 2.3125 10.5 2.08333 10.5ZM7.91667 3C8.14583 3 8.33333 3.16875 8.33333 3.375C8.33333 3.58125 8.14583 3.75 7.91667 3.75C7.6875 3.75 7.5 3.58125 7.5 3.375C7.5 3.16875 7.6875 3 7.91667 3Z" fill="white"/>
</svg>
