<svg width="8" height="18" viewBox="0 0 8 18" fill="none" xmlns="http://www.w3.org/2000/svg">
<path d="M0.833333 14.9143H1.66667V9.8357H0.833333C0.373083 9.8357 0 9.52091 0 9.13257V7.45312C0 7.06479 0.373083 6.75 0.833333 6.75H5.5C5.96025 6.75 6.33333 7.06479 6.33333 7.45312V14.9143H7.16667C7.62692 14.9143 8 15.2291 8 15.6174V17.2969C8 17.6852 7.62692 18 7.16667 18H0.833333C0.373083 18 0 17.6852 0 17.2969V15.6174C0 15.2291 0.373083 14.9143 0.833333 14.9143ZM4 0C2.34313 0 1 1.13326 1 2.53125C1 3.92924 2.34313 5.0625 4 5.0625C5.65688 5.0625 7 3.92924 7 2.53125C7 1.13326 5.65683 0 4 0Z" fill="#FFFFFF"/>
</svg>
