<svg width="17" height="18" viewBox="0 0 17 18" fill="none" xmlns="http://www.w3.org/2000/svg">
<path d="M15.7857 0H1.21049C0.542634 0 0 0.582589 0 1.29777V16.7022C0 17.4174 0.542634 18 1.21049 18H15.7857C16.4536 18 17 17.4174 17 16.7022V1.29777C17 0.582589 16.4536 0 15.7857 0ZM5.13795 15.4286H2.6183V6.83839H5.14174V15.4286H5.13795ZM3.87812 5.66518C3.06987 5.66518 2.41719 4.97009 2.41719 4.1183C2.41719 3.26652 3.06987 2.57143 3.87812 2.57143C4.68259 2.57143 5.33906 3.26652 5.33906 4.1183C5.33906 4.97411 4.68638 5.66518 3.87812 5.66518ZM14.5828 15.4286H12.0632V11.25C12.0632 10.2536 12.0442 8.97188 10.754 8.97188C9.44107 8.97188 9.23996 10.0567 9.23996 11.1777V15.4286H6.72031V6.83839H9.1375V8.01161H9.17165C9.50937 7.33661 10.3328 6.62545 11.5585 6.62545C14.1085 6.62545 14.5828 8.40536 14.5828 10.7196V15.4286Z" fill="white"/>
</svg>
