<svg width="18" height="18" viewBox="0 0 18 18" fill="none" xmlns="http://www.w3.org/2000/svg">
<path d="M17.8499 3.83549C17.7712 3.51803 17.3739 3.41045 17.1426 3.64178L14.5284 6.25599L12.142 5.85837L11.7444 3.47197L14.3586 0.857759C14.5913 0.625025 14.4791 0.228463 14.1596 0.14901C12.4939 -0.263723 10.6598 0.181002 9.35795 1.48248C7.96436 2.87607 7.58081 4.89615 8.16089 6.65747L0.658914 14.1595C-0.219638 15.038 -0.219638 16.4625 0.658914 17.3411C1.53747 18.2196 2.96199 18.2196 3.84055 17.3411L11.3362 9.84544C13.0982 10.4329 15.1144 10.0451 16.5172 8.64239C17.8204 7.33915 18.2644 5.50224 17.8499 3.83549V3.83549ZM2.25008 16.5937C1.78426 16.5937 1.40633 16.2157 1.40633 15.7499C1.40633 15.2837 1.78426 14.9062 2.25008 14.9062C2.7159 14.9062 3.09383 15.2837 3.09383 15.7499C3.09383 16.2157 2.7159 16.5937 2.25008 16.5937Z" fill="#333333"/>
</svg>
